# xmcd
#
# Track frame offsets:
#	187
#	9110
#	24787
#	41315
#	53667
#	75415
#	88280
#	100750
#	111335
#	124735
#	144990
#
# Disc length: 2200 seconds
#
# Revision: 2
# Processed by: cddbd v1.5.2PL0 Copyright (c) Steve Scherf et al.
# Submitted via: AudioConverter v8.05 Copyright (c) D.R. Software
#
DISCID=7508960b
DTITLE=Albert Lee - Gagged But Not Bound
DYEAR=1900
DGENRE=
TTITLE0=Flowers Of Edinburgh
TTITLE1=Don't Let Go
TTITLE2=Midnight Special
TTITLE3=Tiger Rag
TTITLE4=Forty Miles of Bad Road
TTITLE5=Fun Raunch Boogie
TTITLE6=Walkin' After Midnight
TTITLE7=Schon Rösmarin
TTITLE8=Country Gentleman
TTITLE9=Monte Nido
TTITLE10=Oklahoma Stroke
EXTD=
EXTT0=
EXTT1=
EXTT2=
EXTT3=
EXTT4=
EXTT5=
EXTT6=
EXTT7=
EXTT8=
EXTT9=
EXTT10=
PLAYORDER=
